<svg width="31" height="27" fill="none" xmlns="http://www.w3.org/2000/svg"><path clip-rule="evenodd" d="M12.75 3.75a10.485 10.485 0 0 0-8.917 16.025L.75 26.25l6.475-3.083A10.5 10.5 0 1 0 12.75 3.75Z" stroke="url(#a)" stroke-width="1.5" stroke-linecap="round" stroke-linejoin="round"/><path clip-rule="evenodd" d="M15.75 16.5a3 3 0 1 1-6 0h6Z" stroke="url(#b)" stroke-width="1.5" stroke-linecap="round" stroke-linejoin="round"/><path d="M8.25 12.375a.375.375 0 1 0 0 .75.375.375 0 0 0 0-.75" stroke="url(#c)" stroke-width="1.5" stroke-linecap="round" stroke-linejoin="round"/><path d="M17.25 12.375a.375.375 0 1 0 0 .75.375.375 0 0 0 0-.75" stroke="url(#d)" stroke-width="1.5" stroke-linecap="round" stroke-linejoin="round"/><circle cx="24" cy="7" r="5.5" fill="#D85050" stroke="#fff" stroke-width="3"/><defs><linearGradient id="a" x1="12.01" y1="3.75" x2="12.01" y2="26.25" gradientUnits="userSpaceOnUse"><stop stop-color="#20F"/><stop offset="1" stop-color="#9E00FF"/></linearGradient><linearGradient id="b" x1="12.75" y1="16.5" x2="12.75" y2="19.5" gradientUnits="userSpaceOnUse"><stop stop-color="#20F"/><stop offset="1" stop-color="#9E00FF"/></linearGradient><linearGradient id="c" x1="8.375" y1="12.375" x2="8.375" y2="13.375" gradientUnits="userSpaceOnUse"><stop stop-color="#20F"/><stop offset="1" stop-color="#9E00FF"/></linearGradient><linearGradient id="d" x1="17.375" y1="12.375" x2="17.375" y2="13.375" gradientUnits="userSpaceOnUse"><stop stop-color="#20F"/><stop offset="1" stop-color="#9E00FF"/></linearGradient></defs></svg>