<svg width="604" height="66" fill="none" xmlns="http://www.w3.org/2000/svg"><path fill-rule="evenodd" clip-rule="evenodd" d="M7.629 25.496a.868.868 0 1 0 0-1.735.868.868 0 0 0 0 1.735Zm0 1.761a2.629 2.629 0 1 0 0-5.257 2.629 2.629 0 0 0 0 5.257Z" fill="url(#a)"/><path fill-rule="evenodd" clip-rule="evenodd" d="M17.629 54.496a.868.868 0 1 0 0-1.735.868.868 0 0 0 0 1.735Zm0 1.761a2.629 2.629 0 1 0 0-5.257 2.629 2.629 0 0 0 0 5.257Z" fill="url(#b)"/><path fill-rule="evenodd" clip-rule="evenodd" d="M54.943 53.125a2.182 2.182 0 1 0 0-4.364 2.182 2.182 0 0 0 0 4.364Zm0 1.761a3.943 3.943 0 1 0 0-7.886 3.943 3.943 0 0 0 0 7.886Z" fill="url(#c)"/><path fill-rule="evenodd" clip-rule="evenodd" d="m57.035 12.033-1.274.736v1.472l1.274.735 1.275-.735v-1.472l-1.275-.736Zm3.036-.28L57.035 10 54 11.752v3.505l3.035 1.753 3.036-1.753v-3.505Z" fill="url(#d)"/><path fill-rule="evenodd" clip-rule="evenodd" d="m5 38.61-1.68.945v1.89l1.68.944 1.68-.944v-1.89L5 38.611Zm4-.36L5 36l-4 2.25v4.5L5 45l4-2.25v-4.5Z" fill="url(#e)"/><path fill-rule="evenodd" clip-rule="evenodd" d="M25.358 6.664v-2.19l1.897-1.096 1.897 1.095v2.19L27.255 7.76l-1.897-1.095Z" fill="url(#f)"/><g filter="url(#g)"><circle cx="33" cy="31" r="21" fill="url(#h)"/></g><path clip-rule="evenodd" d="M33 42.25c6.213 0 11.25-5.037 11.25-11.25S39.213 19.75 33 19.75 21.75 24.787 21.75 31 26.787 42.25 33 42.25Z" stroke="#fff" stroke-width="1.5" stroke-linecap="round" stroke-linejoin="round"/><path clip-rule="evenodd" d="M33 31.75a1.5 1.5 0 1 0 0-3 1.5 1.5 0 0 0 0 3ZM37.5 36.25a1.5 1.5 0 0 1-1.5 1.5h-6a1.5 1.5 0 0 1 0-3h6a1.5 1.5 0 0 1 1.5 1.5Z" stroke="#fff" stroke-width="1.5" stroke-linecap="round" stroke-linejoin="round"/><path d="m30.178 22.498.513 1.409M25.855 26.125l1.299.75M24.875 31.683l1.478-.261M35.822 22.498l-.513 1.409M40.145 26.125 34.299 29.5M41.125 31.683l-1.478-.261" stroke="#fff" stroke-width="1.5" stroke-linecap="round" stroke-linejoin="round"/><path d="M75.008 25.832c1.173 0 2.203.23 3.088.688a4.841 4.841 0 0 1 2.064 1.968c.49.843.736 1.824.736 2.944 0 1.12-.245 2.101-.736 2.944-.48.832-1.168 1.477-2.064 1.936-.885.459-1.915.688-3.088.688h-3.904V25.832h3.904Zm-.08 9.264c1.173 0 2.08-.32 2.72-.96.64-.64.96-1.541.96-2.704 0-1.163-.32-2.07-.96-2.72-.64-.661-1.547-.992-2.72-.992h-1.584v7.376h1.584Zm7.069-2.56c0-.896.176-1.69.528-2.384.362-.693.848-1.227 1.456-1.6a3.918 3.918 0 0 1 2.064-.56c.661 0 1.237.133 1.728.4.501.267.901.603 1.2 1.008v-1.264h2.256V37h-2.256v-1.296c-.288.416-.688.763-1.2 1.04-.502.267-1.083.4-1.744.4-.747 0-1.43-.192-2.048-.576-.608-.384-1.094-.923-1.456-1.616-.352-.704-.528-1.51-.528-2.416Zm6.976.032c0-.544-.107-1.008-.32-1.392a2.19 2.19 0 0 0-.864-.896 2.265 2.265 0 0 0-1.168-.32c-.416 0-.8.101-1.152.304-.352.203-.64.501-.864.896-.214.384-.32.843-.32 1.376 0 .533.106 1.003.32 1.408.224.395.512.699.864.912.362.213.746.32 1.152.32.416 0 .805-.101 1.168-.304.362-.213.65-.512.864-.896.213-.395.32-.864.32-1.408Zm7.835 4.576c-.725 0-1.376-.128-1.952-.384-.575-.267-1.034-.624-1.375-1.072a2.728 2.728 0 0 1-.544-1.488h2.255c.043.341.209.624.497.848.298.224.666.336 1.104.336.426 0 .757-.085.991-.256.246-.17.368-.39.368-.656 0-.288-.149-.501-.448-.64-.287-.15-.751-.31-1.391-.48a12.259 12.259 0 0 1-1.633-.496 2.9 2.9 0 0 1-1.088-.784c-.298-.352-.448-.827-.448-1.424 0-.49.14-.939.416-1.344.288-.405.694-.725 1.216-.96.534-.235 1.158-.352 1.873-.352 1.055 0 1.898.267 2.528.8.629.523.976 1.232 1.04 2.128h-2.144a1.125 1.125 0 0 0-.448-.832c-.257-.213-.603-.32-1.04-.32-.406 0-.72.075-.944.224a.72.72 0 0 0-.32.624c0 .299.149.528.448.688.298.15.762.304 1.391.464.64.16 1.169.325 1.585.496.415.17.773.437 1.072.8.309.352.469.821.48 1.408 0 .512-.144.97-.432 1.376-.278.405-.683.725-1.216.96-.523.224-1.136.336-1.84.336Zm10.319-9.136c.672 0 1.27.15 1.792.448.523.288.928.72 1.216 1.296.299.565.448 1.248.448 2.048V37h-2.24v-4.896c0-.704-.176-1.243-.528-1.616-.352-.384-.832-.576-1.44-.576-.618 0-1.109.192-1.472.576-.352.373-.528.912-.528 1.616V37h-2.24V25.16h2.24v4.08a2.856 2.856 0 0 1 1.152-.896 3.74 3.74 0 0 1 1.6-.336Zm7.826 1.424a3.221 3.221 0 0 1 1.184-1.04c.512-.267 1.094-.4 1.744-.4a3.834 3.834 0 0 1 3.504 2.16c.363.683.544 1.477.544 2.384 0 .907-.181 1.712-.544 2.416-.352.693-.837 1.232-1.456 1.616a3.754 3.754 0 0 1-2.048.576c-.661 0-1.242-.128-1.744-.384a3.477 3.477 0 0 1-1.184-1.024V37h-2.24V25.16h2.24v4.272Zm4.688 3.104c0-.533-.112-.992-.336-1.376a2.185 2.185 0 0 0-.864-.896 2.268 2.268 0 0 0-1.152-.304c-.405 0-.789.107-1.152.32-.352.203-.64.501-.864.896-.213.395-.32.859-.32 1.392 0 .533.107.997.32 1.392.224.395.512.699.864.912.363.203.747.304 1.152.304.416 0 .8-.107 1.152-.32.363-.213.651-.517.864-.912.224-.395.336-.864.336-1.408Zm7.852 4.608c-.853 0-1.621-.187-2.304-.56a4.201 4.201 0 0 1-1.616-1.616c-.384-.693-.576-1.493-.576-2.4 0-.907.197-1.707.592-2.4a4.168 4.168 0 0 1 1.648-1.6c.693-.384 1.467-.576 2.32-.576.853 0 1.627.192 2.32.576a4.065 4.065 0 0 1 1.632 1.6c.405.693.608 1.493.608 2.4 0 .907-.208 1.707-.624 2.4a4.25 4.25 0 0 1-1.664 1.616c-.693.373-1.472.56-2.336.56Zm0-1.952c.405 0 .784-.096 1.136-.288.363-.203.651-.501.864-.896.213-.395.32-.875.32-1.44 0-.843-.224-1.488-.672-1.936a2.144 2.144 0 0 0-1.616-.688c-.64 0-1.179.23-1.616.688-.427.448-.64 1.093-.64 1.936s.208 1.493.624 1.952c.427.448.96.672 1.6.672Zm5.691-2.656c0-.896.176-1.69.528-2.384.363-.693.848-1.227 1.456-1.6a3.92 3.92 0 0 1 2.064-.56c.662 0 1.238.133 1.728.4a3.49 3.49 0 0 1 1.2 1.008v-1.264h2.256V37h-2.256v-1.296c-.288.416-.688.763-1.2 1.04-.501.267-1.082.4-1.744.4a3.81 3.81 0 0 1-2.048-.576c-.608-.384-1.093-.923-1.456-1.616-.352-.704-.528-1.51-.528-2.416Zm6.976.032c0-.544-.106-1.008-.32-1.392a2.185 2.185 0 0 0-.864-.896 2.264 2.264 0 0 0-1.168-.32c-.416 0-.8.101-1.152.304-.352.203-.64.501-.864.896-.213.384-.32.843-.32 1.376 0 .533.107 1.003.32 1.408.224.395.512.699.864.912.363.213.747.32 1.152.32.416 0 .806-.101 1.168-.304.363-.213.651-.512.864-.896.214-.395.32-.864.32-1.408Zm6.684-3.056c.288-.47.661-.837 1.12-1.104.469-.267 1.003-.4 1.6-.4v2.352h-.592c-.704 0-1.237.165-1.6.496-.352.33-.528.907-.528 1.728V37h-2.24v-8.864h2.24v1.376Zm3.653 3.024c0-.896.176-1.69.528-2.384.362-.693.853-1.227 1.472-1.6a3.915 3.915 0 0 1 2.064-.56c.576 0 1.125.128 1.648.384.522.245.938.576 1.248.992V25.16h2.272V37h-2.272v-1.312c-.278.437-.667.79-1.168 1.056-.502.267-1.083.4-1.744.4-.747 0-1.43-.192-2.048-.576-.619-.384-1.11-.923-1.472-1.616-.352-.704-.528-1.51-.528-2.416Zm6.976.032c0-.544-.107-1.008-.32-1.392a2.198 2.198 0 0 0-.864-.896 2.266 2.266 0 0 0-1.168-.32c-.416 0-.8.101-1.152.304-.352.203-.64.501-.864.896-.214.384-.32.843-.32 1.376 0 .533.106 1.003.32 1.408.224.395.512.699.864.912.362.213.746.32 1.152.32.416 0 .805-.101 1.168-.304.362-.213.65-.512.864-.896.213-.395.32-.864.32-1.408Z" fill="#130B43"/><g clip-path="url(#i)"><path d="M199.5 19.763v22.5M210 19.763v22.5M195 23.513h19.5v5.25H195zM195 34.013h19.5v5.25H195z" stroke="#5C5589" stroke-width="1.5" stroke-linecap="round" stroke-linejoin="round"/><path d="M241.704 25.832v1.808h-2.976V37h-2.24v-9.36h-2.976v-1.808h8.192Zm3.874 3.68c.288-.47.662-.837 1.12-1.104.47-.267 1.003-.4 1.6-.4v2.352h-.592c-.704 0-1.237.165-1.6.496-.352.33-.528.907-.528 1.728V37h-2.24v-8.864h2.24v1.376Zm3.653 3.024c0-.896.176-1.69.528-2.384.363-.693.848-1.227 1.456-1.6a3.92 3.92 0 0 1 2.064-.56c.661 0 1.237.133 1.728.4a3.51 3.51 0 0 1 1.2 1.008v-1.264h2.256V37h-2.256v-1.296c-.288.416-.688.763-1.2 1.04-.501.267-1.083.4-1.744.4a3.807 3.807 0 0 1-2.048-.576c-.608-.384-1.093-.923-1.456-1.616-.352-.704-.528-1.51-.528-2.416Zm6.976.032c0-.544-.107-1.008-.32-1.392a2.185 2.185 0 0 0-.864-.896 2.266 2.266 0 0 0-1.168-.32c-.416 0-.8.101-1.152.304-.352.203-.64.501-.864.896-.213.384-.32.843-.32 1.376 0 .533.107 1.003.32 1.408.224.395.512.699.864.912.363.213.747.32 1.152.32.416 0 .805-.101 1.168-.304.363-.213.651-.512.864-.896.213-.395.32-.864.32-1.408Zm3.868 0c0-.917.187-1.717.56-2.4a3.936 3.936 0 0 1 1.552-1.6c.661-.384 1.419-.576 2.272-.576 1.099 0 2.005.277 2.72.832.725.544 1.211 1.312 1.456 2.304h-2.416a1.71 1.71 0 0 0-.656-.896c-.299-.224-.672-.336-1.12-.336-.64 0-1.147.235-1.52.704-.373.459-.56 1.115-.56 1.968 0 .843.187 1.499.56 1.968.373.459.88.688 1.52.688.907 0 1.499-.405 1.776-1.216h2.416c-.245.96-.731 1.723-1.456 2.288-.725.565-1.632.848-2.72.848-.853 0-1.611-.187-2.272-.56a4.072 4.072 0 0 1-1.552-1.6c-.373-.693-.56-1.499-.56-2.416ZM275.524 37l-3.008-3.776V37h-2.24V25.16h2.24v6.736l2.976-3.76h2.912l-3.904 4.448L278.436 37h-2.912Zm7.488.144c-.726 0-1.376-.128-1.952-.384-.576-.267-1.035-.624-1.376-1.072a2.725 2.725 0 0 1-.544-1.488h2.256c.042.341.208.624.496.848.298.224.666.336 1.104.336.426 0 .757-.085.992-.256.245-.17.368-.39.368-.656 0-.288-.15-.501-.448-.64-.288-.15-.752-.31-1.392-.48a12.195 12.195 0 0 1-1.632-.496 2.898 2.898 0 0 1-1.088-.784c-.299-.352-.448-.827-.448-1.424 0-.49.138-.939.416-1.344.288-.405.693-.725 1.216-.96.533-.235 1.157-.352 1.872-.352 1.056 0 1.898.267 2.528.8.629.523.976 1.232 1.04 2.128h-2.144a1.127 1.127 0 0 0-.448-.832c-.256-.213-.603-.32-1.04-.32-.406 0-.72.075-.944.224a.718.718 0 0 0-.32.624c0 .299.149.528.448.688.298.15.762.304 1.392.464.64.16 1.168.325 1.584.496.416.17.773.437 1.072.8.309.352.469.821.48 1.408 0 .512-.144.97-.432 1.376-.278.405-.683.725-1.216.96-.523.224-1.136.336-1.84.336Z" fill="#5C5589"/></g><path clip-rule="evenodd" d="M331.25 37.75a1.5 1.5 0 0 1-1.5-1.5v-7.5a1.5 1.5 0 0 1 1.5-1.5h10.5a1.5 1.5 0 0 1 1.5 1.5v7.5a1.5 1.5 0 0 1-1.5 1.5h-1.5v4.5l-4.5-4.5h-4.5Z" stroke="#5C5589" stroke-width="1.5" stroke-linecap="round" stroke-linejoin="round"/><path d="m326.75 31.75-3 3v-4.5h-1.5a1.5 1.5 0 0 1-1.5-1.5v-7.5a1.5 1.5 0 0 1 1.5-1.5h10.5a1.5 1.5 0 0 1 1.5 1.5v3" stroke="#5C5589" stroke-width="1.5" stroke-linecap="round" stroke-linejoin="round"/><path d="M373.28 25.832V37h-2.24v-7.264L368.048 37h-1.696l-3.008-7.264V37h-2.24V25.832h2.544l3.552 8.304 3.552-8.304h2.528Zm10.455 6.544c0 .32-.022.608-.064.864h-6.48c.053.64.277 1.141.672 1.504.394.363.88.544 1.456.544.832 0 1.424-.357 1.776-1.072h2.416a4.08 4.08 0 0 1-1.472 2.112c-.726.544-1.616.816-2.672.816-.854 0-1.622-.187-2.304-.56a4.122 4.122 0 0 1-1.584-1.616c-.374-.693-.56-1.493-.56-2.4 0-.917.186-1.723.56-2.416a3.905 3.905 0 0 1 1.568-1.6c.672-.373 1.445-.56 2.32-.56.842 0 1.594.181 2.256.544.672.363 1.189.88 1.552 1.552.373.661.56 1.424.56 2.288Zm-2.32-.64c-.011-.576-.219-1.035-.624-1.376-.406-.352-.902-.528-1.488-.528-.555 0-1.024.17-1.408.512-.374.33-.603.795-.688 1.392h4.208Zm8.867-3.728c1.056 0 1.909.336 2.56 1.008.65.661.976 1.59.976 2.784V37h-2.24v-4.896c0-.704-.176-1.243-.528-1.616-.352-.384-.832-.576-1.44-.576-.619 0-1.11.192-1.472.576-.352.373-.528.912-.528 1.616V37h-2.24v-8.864h2.24v1.104a3.029 3.029 0 0 1 1.136-.896 3.518 3.518 0 0 1 1.536-.336Zm8.274 1.968v4.288c0 .299.069.517.208.656.149.128.394.192.736.192h1.04V37h-1.408c-1.888 0-2.832-.917-2.832-2.752v-4.272h-1.056v-1.84h1.056v-2.192h2.256v2.192h1.984v1.84h-1.984Zm7.531 7.168c-.853 0-1.621-.187-2.304-.56a4.201 4.201 0 0 1-1.616-1.616c-.384-.693-.576-1.493-.576-2.4 0-.907.197-1.707.592-2.4a4.168 4.168 0 0 1 1.648-1.6c.693-.384 1.467-.576 2.32-.576.853 0 1.627.192 2.32.576a4.065 4.065 0 0 1 1.632 1.6c.405.693.608 1.493.608 2.4 0 .907-.208 1.707-.624 2.4a4.25 4.25 0 0 1-1.664 1.616c-.693.373-1.472.56-2.336.56Zm0-1.952c.405 0 .784-.096 1.136-.288.363-.203.651-.501.864-.896.213-.395.32-.875.32-1.44 0-.843-.224-1.488-.672-1.936a2.144 2.144 0 0 0-1.616-.688c-.64 0-1.179.23-1.616.688-.427.448-.64 1.093-.64 1.936s.208 1.493.624 1.952c.427.448.96.672 1.6.672Zm8.507-5.68c.288-.47.661-.837 1.12-1.104.469-.267 1.003-.4 1.6-.4v2.352h-.592c-.704 0-1.237.165-1.6.496-.352.33-.528.907-.528 1.728V37h-2.24v-8.864h2.24v1.376Zm5.365-2.432c-.395 0-.726-.123-.992-.368a1.283 1.283 0 0 1-.384-.944c0-.373.128-.683.384-.928.266-.256.597-.384.992-.384.394 0 .72.128.976.384.266.245.4.555.4.928s-.134.688-.4.944c-.256.245-.582.368-.976.368Zm1.104 1.056V37h-2.24v-8.864h2.24Zm7.125-.128c1.056 0 1.909.336 2.56 1.008.651.661.976 1.59.976 2.784V37h-2.24v-4.896c0-.704-.176-1.243-.528-1.616-.352-.384-.832-.576-1.44-.576-.619 0-1.109.192-1.472.576-.352.373-.528.912-.528 1.616V37h-2.24v-8.864h2.24v1.104a3.037 3.037 0 0 1 1.136-.896 3.518 3.518 0 0 1 1.536-.336Zm9.138-.016c.661 0 1.243.133 1.744.4.501.256.896.592 1.184 1.008v-1.264h2.256v8.928c0 .821-.165 1.552-.496 2.192a3.625 3.625 0 0 1-1.488 1.536c-.661.384-1.461.576-2.4.576-1.259 0-2.293-.293-3.104-.88-.8-.587-1.253-1.387-1.36-2.4h2.224c.117.405.368.725.752.96.395.245.869.368 1.424.368.651 0 1.179-.197 1.584-.592.405-.384.608-.97.608-1.76v-1.376c-.288.416-.688.763-1.2 1.04-.501.277-1.077.416-1.728.416a3.807 3.807 0 0 1-2.048-.576c-.619-.384-1.109-.923-1.472-1.616-.352-.704-.528-1.51-.528-2.416 0-.896.176-1.69.528-2.384.363-.693.848-1.227 1.456-1.6a3.92 3.92 0 0 1 2.064-.56Zm2.928 4.576c0-.544-.107-1.008-.32-1.392a2.185 2.185 0 0 0-.864-.896 2.266 2.266 0 0 0-1.168-.32c-.416 0-.8.101-1.152.304-.352.203-.64.501-.864.896-.213.384-.32.843-.32 1.376 0 .533.107 1.003.32 1.408.224.395.512.699.864.912.363.213.747.32 1.152.32.416 0 .805-.101 1.168-.304.363-.213.651-.512.864-.896.213-.395.32-.864.32-1.408Z" fill="#5C5589"/><path d="M484.25 42.25h-6.75a.75.75 0 0 1-.75-.75v-5.25M484.25 36.25h-7.5v-6M488.75 30.25h-12V25a.75.75 0 0 1 .75-.75H488a.75.75 0 0 1 .75.75v5.25M477.5 24.25V22a.75.75 0 0 1 .75-.75h2.25a.75.75 0 0 1 .75.75v2.25M484.25 24.25V22a.75.75 0 0 1 .75-.75h2.25a.75.75 0 0 1 .75.75v2.25M488 36.25V34a.75.75 0 0 1 .75-.75H491a.75.75 0 0 1 .75.75v2.25M494.75 36.25V34a.75.75 0 0 1 .75-.75h2.25a.75.75 0 0 1 .75.75v2.25" stroke="#5C5589" stroke-width="1.5" stroke-linecap="round" stroke-linejoin="round"/><path clip-rule="evenodd" d="M487.25 37a.75.75 0 0 1 .75-.75h10.5a.75.75 0 0 1 .75.75v4.5a.75.75 0 0 1-.75.75H488a.75.75 0 0 1-.75-.75V37Z" stroke="#5C5589" stroke-width="1.5" stroke-linecap="round" stroke-linejoin="round"/><path d="M516.56 31.4c0-1.099.245-2.08.736-2.944a5.312 5.312 0 0 1 2.032-2.032c.864-.49 1.829-.736 2.896-.736 1.248 0 2.341.32 3.28.96.939.64 1.595 1.525 1.968 2.656h-2.576c-.256-.533-.619-.933-1.088-1.2-.459-.267-.992-.4-1.6-.4-.651 0-1.232.155-1.744.464a3.13 3.13 0 0 0-1.184 1.28c-.277.555-.416 1.205-.416 1.952 0 .736.139 1.387.416 1.952.288.555.683.987 1.184 1.296.512.299 1.093.448 1.744.448.608 0 1.141-.133 1.6-.4.469-.277.832-.683 1.088-1.216h2.576c-.373 1.141-1.029 2.032-1.968 2.672-.928.63-2.021.944-3.28.944-1.067 0-2.032-.24-2.896-.72a5.463 5.463 0 0 1-2.032-2.032c-.491-.864-.736-1.845-.736-2.944Zm16.761 5.744c-.853 0-1.621-.187-2.304-.56a4.208 4.208 0 0 1-1.616-1.616c-.384-.693-.576-1.493-.576-2.4 0-.907.198-1.707.592-2.4a4.175 4.175 0 0 1 1.648-1.6c.694-.384 1.467-.576 2.32-.576.854 0 1.627.192 2.32.576a4.053 4.053 0 0 1 1.632 1.6c.406.693.608 1.493.608 2.4 0 .907-.208 1.707-.624 2.4a4.25 4.25 0 0 1-1.664 1.616c-.693.373-1.472.56-2.336.56Zm0-1.952c.406 0 .784-.096 1.136-.288.363-.203.651-.501.864-.896.214-.395.32-.875.32-1.44 0-.843-.224-1.488-.672-1.936a2.144 2.144 0 0 0-1.616-.688c-.64 0-1.178.23-1.616.688-.426.448-.64 1.093-.64 1.936s.208 1.493.624 1.952c.427.448.96.672 1.6.672Zm11.179-7.184c1.056 0 1.91.336 2.56 1.008.651.661.976 1.59.976 2.784V37h-2.24v-4.896c0-.704-.176-1.243-.528-1.616-.352-.384-.832-.576-1.44-.576-.618 0-1.109.192-1.472.576-.352.373-.528.912-.528 1.616V37h-2.24v-8.864h2.24v1.104a3.045 3.045 0 0 1 1.136-.896c.47-.224.982-.336 1.536-.336Zm8.275 1.968v4.288c0 .299.069.517.208.656.149.128.394.192.736.192h1.04V37h-1.408c-1.888 0-2.832-.917-2.832-2.752v-4.272h-1.056v-1.84h1.056v-2.192h2.256v2.192h1.984v1.84h-1.984Zm5.835-.464c.288-.47.661-.837 1.12-1.104.469-.267 1.002-.4 1.6-.4v2.352h-.592c-.704 0-1.238.165-1.6.496-.352.33-.528.907-.528 1.728V37h-2.24v-8.864h2.24v1.376Zm5.364-2.432c-.394 0-.725-.123-.992-.368a1.283 1.283 0 0 1-.384-.944c0-.373.128-.683.384-.928.267-.256.598-.384.992-.384.395 0 .72.128.976.384.267.245.4.555.4.928s-.133.688-.4.944c-.256.245-.581.368-.976.368Zm1.104 1.056V37h-2.24v-8.864h2.24Zm4.454 1.296a3.213 3.213 0 0 1 1.184-1.04c.512-.267 1.093-.4 1.744-.4.757 0 1.44.187 2.048.56.618.373 1.104.907 1.456 1.6.362.683.544 1.477.544 2.384 0 .907-.182 1.712-.544 2.416a3.972 3.972 0 0 1-1.456 1.616 3.756 3.756 0 0 1-2.048.576c-.662 0-1.243-.128-1.744-.384a3.458 3.458 0 0 1-1.184-1.024V37h-2.24V25.16h2.24v4.272Zm4.688 3.104c0-.533-.112-.992-.336-1.376a2.198 2.198 0 0 0-.864-.896 2.268 2.268 0 0 0-1.152-.304c-.406 0-.79.107-1.152.32-.352.203-.64.501-.864.896-.214.395-.32.859-.32 1.392 0 .533.106.997.32 1.392.224.395.512.699.864.912.362.203.746.304 1.152.304.416 0 .8-.107 1.152-.32.362-.213.65-.517.864-.912.224-.395.336-.864.336-1.408Zm12.283-4.4V37h-2.256v-1.12a3.007 3.007 0 0 1-1.136.912 3.52 3.52 0 0 1-1.504.32c-.693 0-1.306-.144-1.84-.432a3.223 3.223 0 0 1-1.264-1.296c-.298-.576-.448-1.259-.448-2.048v-5.2h2.24v4.88c0 .704.176 1.248.528 1.632.352.373.832.56 1.44.56.619 0 1.104-.187 1.456-.56.352-.384.528-.928.528-1.632v-4.88h2.256Zm4.818 1.84v4.288c0 .299.07.517.208.656.15.128.395.192.736.192h1.04V37h-1.408c-1.888 0-2.832-.917-2.832-2.752v-4.272h-1.056v-1.84h1.056v-2.192h2.256v2.192h1.984v1.84h-1.984Zm11.836 2.4c0 .32-.022.608-.064.864h-6.48c.053.64.277 1.141.672 1.504.394.363.88.544 1.456.544.832 0 1.424-.357 1.776-1.072h2.416a4.08 4.08 0 0 1-1.472 2.112c-.726.544-1.616.816-2.672.816-.854 0-1.622-.187-2.304-.56a4.122 4.122 0 0 1-1.584-1.616c-.374-.693-.561-1.493-.561-2.4 0-.917.187-1.723.561-2.416a3.905 3.905 0 0 1 1.568-1.6c.672-.373 1.445-.56 2.32-.56.842 0 1.594.181 2.256.544.672.363 1.189.88 1.552 1.552.373.661.56 1.424.56 2.288Zm-2.32-.64c-.011-.576-.219-1.035-.624-1.376-.406-.352-.902-.528-1.488-.528-.555 0-1.024.17-1.408.512-.374.33-.603.795-.688 1.392h4.208Z" fill="#5C5589"/><defs><linearGradient id="a" x1="7.629" y1="22" x2="7.629" y2="27.257" gradientUnits="userSpaceOnUse"><stop stop-color="#20F"/><stop offset="1" stop-color="#9E00FF"/></linearGradient><linearGradient id="b" x1="17.629" y1="51" x2="17.629" y2="56.257" gradientUnits="userSpaceOnUse"><stop stop-color="#20F"/><stop offset="1" stop-color="#9E00FF"/></linearGradient><linearGradient id="c" x1="54.943" y1="47" x2="54.943" y2="54.886" gradientUnits="userSpaceOnUse"><stop stop-color="#20F"/><stop offset="1" stop-color="#9E00FF"/></linearGradient><linearGradient id="d" x1="57.035" y1="10" x2="57.035" y2="17.01" gradientUnits="userSpaceOnUse"><stop stop-color="#20F"/><stop offset="1" stop-color="#9E00FF"/></linearGradient><linearGradient id="e" x1="5" y1="36" x2="5" y2="45" gradientUnits="userSpaceOnUse"><stop stop-color="#20F"/><stop offset="1" stop-color="#9E00FF"/></linearGradient><linearGradient id="f" x1="27.255" y1="3.378" x2="27.255" y2="7.759" gradientUnits="userSpaceOnUse"><stop stop-color="#20F"/><stop offset="1" stop-color="#9E00FF"/></linearGradient><linearGradient id="h" x1="33" y1="10" x2="33" y2="52" gradientUnits="userSpaceOnUse"><stop stop-color="#20F"/><stop offset="1" stop-color="#9E00FF"/></linearGradient><clipPath id="i"><path fill="#fff" transform="translate(193 19)" d="M0 0h95v24H0z"/></clipPath><filter id="g" x="0" y="0" width="66" height="66" filterUnits="userSpaceOnUse" color-interpolation-filters="sRGB"><feFlood flood-opacity="0" result="BackgroundImageFix"/><feColorMatrix in="SourceAlpha" values="0 0 0 0 0 0 0 0 0 0 0 0 0 0 0 0 0 0 127 0" result="hardAlpha"/><feOffset dy="2"/><feGaussianBlur stdDeviation="6"/><feColorMatrix values="0 0 0 0 0.309804 0 0 0 0 0.448157 0 0 0 0 0.803922 0 0 0 0.8 0"/><feBlend in2="BackgroundImageFix" result="effect1_dropShadow_2575_684"/><feBlend in="SourceGraphic" in2="effect1_dropShadow_2575_684" result="shape"/></filter></defs></svg>