<svg width="64" height="64" fill="none" xmlns="http://www.w3.org/2000/svg"><path d="M28 2.31a8 8 0 0 1 8 0l19.713 11.38a8 8 0 0 1 4 6.929V43.38a8 8 0 0 1-4 6.928L36 61.691a8 8 0 0 1-8 0L8.287 50.309a8 8 0 0 1-4-6.928V20.62a8 8 0 0 1 4-6.928L28 2.309Z" fill="#fff"/><path fill-rule="evenodd" clip-rule="evenodd" d="M54.213 16.289 34.5 4.907a5 5 0 0 0-5 0L9.787 16.29a5 5 0 0 0-2.5 4.33V43.38a5 5 0 0 0 2.5 4.33L29.5 59.093a5 5 0 0 0 5 0L54.213 47.71a5 5 0 0 0 2.5-4.33V20.62a5 5 0 0 0-2.5-4.33ZM36 2.309a8 8 0 0 0-8 0L8.287 13.691a8 8 0 0 0-4 6.928V43.38a8 8 0 0 0 4 6.928L28 61.691a8 8 0 0 0 8 0l19.713-11.382a8 8 0 0 0 4-6.928V20.62a8 8 0 0 0-4-6.928L36 2.309Z" fill="#130B43"/><path clip-rule="evenodd" d="M32.875 18.875a12.233 12.233 0 0 0-10.403 18.696l-3.597 7.554 7.554-3.597a12.25 12.25 0 1 0 6.446-22.653Z" stroke="#130B43" stroke-width="2" stroke-linecap="round" stroke-linejoin="round"/><path clip-rule="evenodd" d="M36.375 33.75a3.5 3.5 0 1 1-7 0h7Z" stroke="#130B43" stroke-width="1.5" stroke-linecap="round" stroke-linejoin="round"/><path d="M27.625 28.938a.438.438 0 1 0 0 .875.438.438 0 0 0 0-.875M38.125 28.938a.438.438 0 1 0 0 .875.438.438 0 0 0 0-.875" stroke="#130B43" stroke-width="1.5" stroke-linecap="round" stroke-linejoin="round"/></svg>