<svg width="31" height="27" fill="none" xmlns="http://www.w3.org/2000/svg"><path d="M11 4.732a2 2 0 0 1 2 0L20.392 9a2 2 0 0 1 1 1.732v8.536a2 2 0 0 1-1 1.732L13 25.268a2 2 0 0 1-2 0L3.608 21a2 2 0 0 1-1-1.732v-8.536a2 2 0 0 1 1-1.732L11 4.732Z" fill="#fff" stroke="url(#a)" stroke-width="2"/><circle cx="24" cy="7" r="5.5" fill="#D85050" stroke="#fff" stroke-width="3"/><defs><linearGradient id="a" x1="12" y1="3" x2="12" y2="27" gradientUnits="userSpaceOnUse"><stop stop-color="#20F"/><stop offset="1" stop-color="#9E00FF"/></linearGradient></defs></svg>